<?xml version="1.0" encoding="utf-8"?>
<!-- Generator: Adobe Illustrator 26.5.0, SVG Export Plug-In . SVG Version: 6.00 Build 0)  -->
<svg version="1.1" id="Layer_1" xmlns="http://www.w3.org/2000/svg" xmlns:xlink="http://www.w3.org/1999/xlink" x="0px" y="0px"
	 viewBox="0 0 105.4 113.26" style="enable-background:new 0 0 105.4 113.26;" xml:space="preserve">
<style type="text/css">
	.st0{fill:#F37021;}
	.st1{fill:#FFFFFF;}
	.st2{fill:#ED1B2F;}
	.st3{fill:#0DB14B;}
	.st4{fill:#7A3300;}
	.st5{fill:#570000;}
	.st6{fill:#004914;}
</style>
<g>
	<circle class="st2" cx="52.7" cy="56.63" r="48.21"/>
	<g>
		<path class="st1" d="M62.79,88.07H42.61c-8.33,0-15.1-6.77-15.1-15.1V40.29c0-8.33,6.77-15.1,15.1-15.1h20.18
			c8.33,0,15.1,6.77,15.1,15.1v32.68C77.89,81.3,71.12,88.07,62.79,88.07z M42.61,27.69c-6.95,0-12.6,5.65-12.6,12.6v32.68
			c0,6.95,5.65,12.6,12.6,12.6h20.18c6.95,0,12.6-5.65,12.6-12.6V40.29c0-6.95-5.65-12.6-12.6-12.6H42.61z"/>
		<path class="st1" d="M62.79,88.07H42.61c-8.33,0-15.1-6.77-15.1-15.1V40.29c0-8.33,6.77-15.1,15.1-15.1h20.18
			c8.33,0,15.1,6.77,15.1,15.1v32.68C77.89,81.3,71.12,88.07,62.79,88.07z M42.61,27.69c-6.95,0-12.6,5.65-12.6,12.6v32.68
			c0,6.95,5.65,12.6,12.6,12.6h20.18c6.95,0,12.6-5.65,12.6-12.6V40.29c0-6.95-5.65-12.6-12.6-12.6H42.61z"/>
		<path class="st1" d="M59.37,59.87c-0.12,0-0.24-0.01-0.36-0.02c-0.82-0.09-1.55-0.5-2.06-1.15l-2.32-2.92l-14.49-6.21
			c-1.63-0.7-2.73-2.17-2.94-3.93c-0.21-1.76,0.51-3.45,1.93-4.51l12.67-9.48c1.42-1.06,3.24-1.28,4.87-0.58
			c1.63,0.7,2.73,2.17,2.94,3.93l1.84,15.43l2.29,2.88c0.51,0.64,0.74,1.45,0.65,2.27s-0.5,1.55-1.15,2.06l-1.97,1.56
			C60.73,59.64,60.06,59.87,59.37,59.87z M54.5,33.15c-0.63,0-1.25,0.2-1.78,0.6L40.8,42.67c-0.87,0.65-1.31,1.68-1.18,2.75
			c0.13,1.07,0.8,1.97,1.79,2.4l13.64,5.85c0.25,0.11,0.46,0.27,0.63,0.48l2.18,2.75c0.21,0.27,0.51,0.43,0.85,0.47
			c0.34,0.04,0.67-0.06,0.94-0.27l1.85-1.47c0.27-0.21,0.43-0.51,0.47-0.85c0.04-0.34-0.06-0.67-0.27-0.94v0l-2.16-2.72
			c-0.19-0.23-0.3-0.51-0.34-0.81L57.48,35.8c-0.13-1.07-0.8-1.97-1.79-2.4C55.31,33.24,54.9,33.15,54.5,33.15z"/>
		<path class="st1" d="M61.29,60.39c0.71,0.2,1.26,0.68,1.83,1.11c0.99,0.76,1.83,1.68,2.52,2.73c0.64,0.99,1.11,2.05,1.39,3.19
			c0.22,0.87,0.25,1.74-0.03,2.59c-0.46,1.38-1.38,2.34-2.76,2.79c-1.53,0.5-2.93,0.21-4.17-0.8c-0.73-0.6-1.19-1.38-1.41-2.31
			c-0.24-1-0.06-1.95,0.27-2.89c0.33-0.93,0.78-1.8,1.16-2.71c0.31-0.73,0.56-1.46,0.65-2.25c0.03-0.26,0.03-0.52,0.03-0.78
			c0-0.25,0.05-0.49,0.28-0.64C61.13,60.41,61.21,60.4,61.29,60.39z M63.7,71.18c0.84-0.27,1.37-0.82,1.67-1.71
			c0.16-0.47,0.16-0.99,0-1.64c-0.24-0.96-0.62-1.83-1.17-2.67c-0.53-0.82-1.19-1.55-1.94-2.16c-0.16,0.68-0.4,1.28-0.6,1.76
			c-0.15,0.35-0.3,0.69-0.46,1.03c-0.25,0.55-0.49,1.07-0.67,1.59c-0.28,0.78-0.35,1.37-0.22,1.91c0.14,0.58,0.41,1.04,0.84,1.38
			c0.67,0.55,1.33,0.74,2.08,0.62C63.39,71.27,63.55,71.23,63.7,71.18z"/>
		<g>
			<path class="st1" d="M36.57,60.64c0.43,0.14,0.78,0.4,1.05,0.78c0.21,0.31,0.36,0.64,0.44,0.99c0.08,0.36,0.12,0.69,0.12,1.02
				c0,0.82-0.16,1.51-0.49,2.08c-0.44,0.76-1.13,1.15-2.06,1.15h-2.65v-6.14h2.65C36,60.51,36.32,60.56,36.57,60.64z M34.22,61.57
				v4.01h1.19c0.61,0,1.03-0.3,1.27-0.9c0.13-0.33,0.2-0.72,0.2-1.17c0-0.62-0.1-1.11-0.29-1.44c-0.2-0.33-0.59-0.5-1.17-0.5H34.22z
				"/>
			<path class="st1" d="M43.07,60.66c0.23,0.1,0.42,0.24,0.58,0.43c0.13,0.16,0.23,0.33,0.31,0.52c0.08,0.19,0.11,0.4,0.11,0.65
				c0,0.29-0.07,0.58-0.22,0.86c-0.15,0.28-0.39,0.48-0.73,0.6c0.28,0.11,0.48,0.28,0.6,0.49c0.12,0.21,0.18,0.53,0.18,0.96v0.41
				c0,0.28,0.01,0.47,0.03,0.57c0.03,0.16,0.11,0.27,0.24,0.35v0.15h-1.42c-0.04-0.14-0.07-0.25-0.08-0.33
				c-0.03-0.17-0.05-0.35-0.05-0.53l-0.01-0.57c-0.01-0.39-0.07-0.65-0.2-0.78c-0.13-0.13-0.37-0.2-0.73-0.2h-1.25v2.41h-1.25v-6.14
				h2.94C42.53,60.51,42.85,60.57,43.07,60.66z M40.42,61.57v1.65h1.38c0.27,0,0.48-0.03,0.62-0.1c0.24-0.12,0.36-0.35,0.36-0.69
				c0-0.37-0.12-0.62-0.35-0.75c-0.13-0.07-0.33-0.11-0.59-0.11H40.42z"/>
			<path class="st1" d="M45.3,60.51h1.3v3.77c0,0.42,0.05,0.73,0.15,0.92c0.16,0.34,0.49,0.52,1.01,0.52c0.52,0,0.85-0.17,1.01-0.52
				c0.1-0.19,0.15-0.5,0.15-0.92v-3.77h1.3v3.78c0,0.65-0.1,1.16-0.3,1.53c-0.38,0.67-1.1,1-2.16,1s-1.78-0.33-2.16-1
				c-0.2-0.36-0.3-0.87-0.3-1.53V60.51z"/>
			<path class="st1" d="M55.6,62.42c-0.1-0.42-0.34-0.71-0.71-0.88c-0.21-0.09-0.45-0.14-0.7-0.14c-0.49,0-0.9,0.19-1.22,0.56
				c-0.32,0.37-0.48,0.93-0.48,1.68c0,0.75,0.17,1.29,0.52,1.6c0.34,0.31,0.74,0.47,1.18,0.47c0.43,0,0.78-0.12,1.06-0.37
				c0.28-0.25,0.44-0.57,0.51-0.97h-1.42v-1.03h2.56v3.3h-0.85l-0.13-0.77c-0.25,0.29-0.47,0.5-0.67,0.61
				c-0.34,0.21-0.76,0.31-1.25,0.31c-0.81,0-1.48-0.28-2-0.85c-0.54-0.57-0.81-1.34-0.81-2.32c0-0.99,0.27-1.79,0.82-2.39
				c0.55-0.6,1.27-0.9,2.17-0.9c0.78,0,1.41,0.2,1.88,0.59c0.47,0.4,0.75,0.89,0.81,1.48H55.6z"/>
		</g>
		<g>
			<path class="st1" d="M70.51,68.89h-2.67c-0.09,2.68-2.28,4.82-4.98,4.82c-2.7,0-4.89-2.14-4.98-4.82H34.89
				c-0.97,0-1.76,0.79-1.76,1.76v2.32c0,5.23,4.24,9.48,9.48,9.48h20.18c5.23,0,9.48-4.24,9.48-9.48v-2.32
				C72.27,69.68,71.48,68.89,70.51,68.89z"/>
		</g>
	</g>
</g>
</svg>
