<?xml version="1.0" encoding="utf-8"?>
<!-- Generator: Adobe Illustrator 26.5.0, SVG Export Plug-In . SVG Version: 6.00 Build 0)  -->
<svg version="1.1" id="Layer_1" xmlns="http://www.w3.org/2000/svg" xmlns:xlink="http://www.w3.org/1999/xlink" x="0px" y="0px"
	 viewBox="0 0 105.4 113.26" style="enable-background:new 0 0 105.4 113.26;" xml:space="preserve">
<style type="text/css">
	.st0{fill:#F37021;}
	.st1{fill:#FFFFFF;}
	.st2{fill:#ED1B2F;}
	.st3{fill:#0DB14B;}
	.st4{fill:#7A3300;}
	.st5{fill:#570000;}
	.st6{fill:#004914;}
</style>
<g>
	<circle class="st6" cx="52.7" cy="56.63" r="48.21"/>
	<g id="FtCszh_00000093876100309612661090000008852054396486896563_">
		<g>
			<path class="st3" d="M32.96,46.88c-2.52-1.55-4.51-3.53-5.91-6.09c-1.21-2.21-1.82-4.58-1.84-7.11c-0.01-1.15-0.01-2.29,0-3.44
				c0-0.79,0.32-1.12,1.11-1.1c4.33,0.12,7.99,1.77,10.92,4.96c0.34,0.37,0.45,0.33,0.73-0.05c2.26-3.11,5.32-4.76,9.17-4.91
				c0.79-0.03,1.12,0.3,1.12,1.09c0,1.85,0.01,3.69-0.01,5.54c0,0.36,0.09,0.47,0.46,0.47c1.26-0.02,2.51-0.01,3.77-0.01
				c0.79,0,1.12,0.33,1.1,1.11c-0.14,3.81-1.76,6.84-4.8,9.12c-0.14,0.11-0.28,0.21-0.55,0.41c0.81,0,1.49,0,2.16,0
				c0.24,0,0.35-0.19,0.49-0.32c1.22-1.21,2.44-2.42,3.65-3.64c1.9-1.91,4.09-3.39,6.61-4.35c1.84-0.7,3.53-1.67,5.05-2.93
				c0.29-0.24,0.4-0.4,0.21-0.81c-0.83-1.76-0.27-3.81,1.3-4.93c1.55-1.11,3.64-1.02,5.04,0.34c2.17,2.11,4.31,4.26,6.41,6.44
				c1.34,1.39,1.41,3.54,0.26,5.09c-1.15,1.55-3.18,2.06-4.95,1.2c-0.31-0.15-0.47-0.12-0.68,0.14c-0.62,0.76-1.2,1.55-1.68,2.4
				c-0.23,0.41-0.45,0.84-0.73,1.36c0.31,0,0.52-0.01,0.73,0c1.49,0.04,3-0.15,4.48,0.1c1.88,0.31,3.23,1.75,3.57,3.68
				c0.31,1.74-0.58,3.59-2.18,4.49c-0.32,0.18-0.42,0.36-0.43,0.72c-0.29,9.25-4.36,16.34-12.2,21.26
				c-0.14,0.09-0.29,0.16-0.42,0.26c-0.5,0.36-0.59,0.8-0.3,1.35c1.37,2.57-0.28,5.37-3.19,5.38c-5.8,0.02-11.6,0.02-17.4,0
				c-2.92-0.01-4.57-2.81-3.2-5.38c0.33-0.63,0.19-1.08-0.53-1.5c-2.05-1.2-3.92-2.64-5.54-4.38c-3.97-4.24-6.25-9.25-6.76-15.05
				c-0.01-0.13-0.03-0.26-0.04-0.39c-0.02-0.61,0.05-1.24-0.09-1.82c-0.15-0.62-0.92-0.7-1.33-1.13c-1.24-1.3-1.67-3.15-0.96-4.82
				c0.74-1.74,2.11-2.67,4-2.76C30.68,46.84,31.82,46.88,32.96,46.88z M52.76,55.75c-7.5,0-15,0.01-22.5-0.01
				c-0.52,0-0.64,0.14-0.62,0.64c0.25,5.88,2.36,10.98,6.39,15.28c1.54,1.64,3.32,2.98,5.25,4.13c1.45,0.86,1.86,2.37,1.08,3.8
				c-0.74,1.36,0.08,2.75,1.66,2.76c5.78,0.01,11.56,0.01,17.34,0c1.6,0,2.41-1.4,1.64-2.8c-0.71-1.29-0.35-2.78,0.86-3.61
				c0.24-0.17,0.51-0.3,0.76-0.46C71.6,71,75.3,64.64,75.75,56.38c0.03-0.49-0.09-0.64-0.61-0.64
				C67.68,55.75,60.22,55.75,52.76,55.75z M52.75,48.65c-7.55,0-15.11,0-22.66,0c-0.2,0-0.41-0.01-0.61,0.01
				c-1.67,0.1-2.84,1.72-2.4,3.34c0.34,1.26,1.37,1.98,2.85,1.98c15.18,0,30.36,0,45.54,0c0.15,0,0.3,0,0.44-0.01
				c1.41-0.09,2.51-1.28,2.5-2.68c-0.01-1.51-1.21-2.63-2.83-2.63C67.97,48.65,60.36,48.65,52.75,48.65z M53.11,46.88
				c0.33,0,0.53,0,0.74,0c4.72,0,9.45-0.04,14.17,0.03c1.08,0.02,1.72-0.22,2.01-1.28c0.07-0.27,0.14-0.43-0.09-0.66
				c-1.85-1.83-3.69-3.67-5.52-5.52c-0.22-0.22-0.38-0.26-0.66-0.12c-0.71,0.35-1.43,0.69-2.17,0.96
				C58.1,41.59,55.66,44.21,53.11,46.88z M37.61,45.03c0.11-0.03,0.15-0.03,0.17-0.05c2.38-2.82,4.19-5.93,4.96-9.58
				c0.23-1.1,0.23-1.07,1.34-0.91c0.53,0.08,0.69,0.28,0.51,0.77c-0.02,0.05-0.03,0.11-0.04,0.16c-0.77,3.75-2.45,7.06-4.86,10
				c-0.31,0.37-0.59,0.77-0.91,1.19c0.12,0.01,0.15,0.01,0.19,0.01c4.31-0.99,7.47-4.9,7.52-9.32c0.02-1.87,0-3.73,0.01-5.6
				c0-0.78,0-0.8-0.79-0.63c-3.85,0.81-6.44,3.06-7.66,6.81C37.29,40.21,37.75,42.63,37.61,45.03z M35.81,39.84
				c0.05-0.08,0.09-0.12,0.1-0.17c0.1-1.11,0.34-2.19,0.75-3.22c0.09-0.23-0.05-0.35-0.16-0.48c-2.36-2.9-5.39-4.58-9.12-4.99
				c-0.33-0.04-0.41,0.04-0.41,0.36c0.02,0.77-0.02,1.55,0.01,2.33c0.22,5.56,2.83,9.57,7.82,12.03c0.32,0.16,0.65,0.33,1.04,0.37
				c0-1.21-0.01-2.39,0.01-3.57c0.01-0.34-0.11-0.53-0.38-0.71c-2.55-1.7-4.55-3.91-6.01-6.6c-0.66-1.22-0.66-1.22,0.61-1.82
				c0.28-0.13,0.41-0.1,0.55,0.18c0.34,0.65,0.68,1.31,1.08,1.93C32.79,37.17,34.16,38.63,35.81,39.84z M76.11,41.59
				c1,0,1.77-0.49,2.12-1.33c0.38-0.94,0.2-1.79-0.49-2.5c-2.03-2.06-4.08-4.12-6.13-6.16c-0.91-0.9-2.25-0.91-3.13-0.05
				c-0.9,0.87-0.94,2.27-0.05,3.18c2.04,2.08,4.11,4.14,6.17,6.21C75.02,41.38,75.55,41.6,76.11,41.59z M43.05,46.79
				c0.86-0.03,1.54-0.21,2.21-0.46c3.56-1.34,5.69-3.9,6.42-7.62c0.13-0.69,0.11-0.69-0.52-0.69c-0.83,0-1.66,0.02-2.49-0.01
				c-0.36-0.01-0.47,0.11-0.51,0.46c-0.36,3.06-1.76,5.56-4.1,7.54C43.77,46.25,43.46,46.47,43.05,46.79z M72.69,41.6
				c-0.05-0.06-0.1-0.14-0.16-0.2c-1.52-1.53-3.05-3.05-4.56-4.59c-0.18-0.18-0.29-0.14-0.46,0c-0.5,0.41-1,0.81-1.52,1.19
				c-0.21,0.15-0.27,0.25-0.06,0.46c1.66,1.65,3.31,3.31,4.97,4.96c0.07,0.07,0.2,0.23,0.26,0.15
				C71.68,42.93,72.17,42.27,72.69,41.6z"/>
			<path class="st3" d="M42.06,57.52c3.38,0,6.76,0.01,10.14-0.01c0.42,0,0.52,0.11,0.52,0.52c-0.02,1.26,0,1.26-1.26,1.26
				c-6.48,0-12.96-0.01-19.44,0.01c-0.49,0-0.62-0.12-0.6-0.61c0.04-1.18,0.01-1.18,1.18-1.18C35.74,57.52,38.9,57.52,42.06,57.52z"
				/>
			<path class="st3" d="M73.61,59.72c-0.54,2.8-1.59,5.39-3.16,7.75c-2.04,3.08-4.71,5.46-7.98,7.19c-0.38,0.2-0.57,0.22-0.77-0.23
				c-0.49-1.09-0.51-1.07,0.51-1.66c5.08-2.95,8.29-7.28,9.56-13.02c0.11-0.52,0.3-0.68,0.8-0.5c0.26,0.09,0.54,0.11,0.82,0.15
				C73.61,59.42,73.68,59.53,73.61,59.72z"/>
			<path class="st3" d="M56.25,58.4c0,0.9,0,0.9-1.06,0.89c-0.72,0-0.72,0-0.72-1.07c0-0.7,0-0.7,1.09-0.7
				C56.25,57.52,56.25,57.52,56.25,58.4z"/>
		</g>
	</g>
</g>
</svg>
