<?xml version="1.0" encoding="utf-8"?>
<!-- Generator: Adobe Illustrator 26.5.0, SVG Export Plug-In . SVG Version: 6.00 Build 0)  -->
<svg version="1.1" id="Layer_1" xmlns="http://www.w3.org/2000/svg" xmlns:xlink="http://www.w3.org/1999/xlink" x="0px" y="0px"
	 viewBox="0 0 497.97 503.3" style="enable-background:new 0 0 497.97 503.3;" xml:space="preserve">
<style type="text/css">
	.st0{fill:#CC7552;}
	.st1{fill:#834B38;}
	.st2{fill:#F4A487;}
	.st3{fill:#394C2C;}
	.st4{fill:#92B77B;}
	.st5{fill:#729958;}
	.st6{fill:#FFFFFF;stroke:#606161;stroke-width:2;stroke-miterlimit:10;}
	.st7{fill:#2E2C2C;}
	.st8{fill:#5C5C5C;}
	.st9{fill:#FFFFFF;}
	.st10{font-family:'Poppins-Light';}
	.st11{font-size:12px;}
	.st12{fill:#FFFFFF;stroke:#DF353A;stroke-width:4;stroke-miterlimit:10;}
	.st13{fill:#DF353A;}
</style>
<g>
	<circle class="st8" cx="248.98" cy="251.65" r="184.36"/>
	<g>
		<path class="st9" d="M246.55,124.3c10.5,0.06,17.84,0.47,25.07,1.91c4.64,0.92,9-0.69,13.49-1.1c33.11-2.98,61.92,5.79,83.14,32.5
			c13.5,17,16.47,36.45,8.82,57.1c-0.87,2.35-1.08,4.48-0.42,6.97c8.61,32.71,4.83,64.06-10.3,94.22
			c-16.49,32.86-42.98,53.84-77.36,65.58c-22.48,7.68-45.41,8.39-68.39,3.41c-34.16-7.4-61.01-26.05-80.97-54.66
			c-13.94-19.99-20.99-42.34-22.56-66.55c-1.5-23.18,3.89-44.83,13.62-65.75c7.56-16.26,18.55-29.67,31.86-41.31
			c13.34-11.67,28.64-19.96,45.45-25.65C221.55,126.37,235.51,124.79,246.55,124.3z M249.28,269.35c0.37,0.15,0.74,0.3,1.11,0.45
			c8.59-7.18,17.25-14.29,25.73-21.6c1.53-1.32,2.73-1.58,4.61-1.25c15.19,2.71,30.13,1.69,44.59-3.83
			c16.33-6.24,29.48-16.26,36.45-32.83c6.56-15.59,3.9-30.29-6.22-43.4c-13.87-17.98-33.23-25.53-55.24-26.58
			c-23.88-1.14-45.35,5.25-62.12,23.22c-14.3,15.32-16.32,34.59-6.11,52.41c2.14,3.73,4.31,7.9,7.79,10.09
			c9.75,6.12,10.16,15.13,9.49,25.01C248.94,257.11,249.28,263.24,249.28,269.35z M159.75,264.13c0,0.02,0,0.03,0,0.05
			c-7.61,0-15.23,0.14-22.84-0.06c-3.24-0.09-4.13,0.92-3.79,4.12c1.46,13.97,5.42,27.17,11.55,39.78c1.01,2.09,2.5,2.41,4.51,2.41
			c12.96-0.04,25.92-0.08,38.87,0.07c2.9,0.03,3.36-1,2.89-3.55c-2.41-13.15-3.86-26.42-4.57-39.77c-0.13-2.52-1.05-3.12-3.37-3.08
			C175.25,264.2,167.5,264.13,159.75,264.13z M338.44,264.2c0-0.02,0-0.05,0-0.07c-7.61,0-15.21,0-22.82,0c-1.75,0-3.4-0.2-3.52,2.5
			c-0.59,13.75-2.24,27.38-4.72,40.91c-0.36,1.98,0.05,2.95,2.35,2.93c13.08-0.09,26.16-0.09,39.24-0.07c1.78,0,2.97-0.51,3.81-2.22
			c6.32-12.81,10.34-26.26,11.69-40.51c0.25-2.64-0.52-3.57-3.21-3.52C353.66,264.29,346.05,264.2,338.44,264.2z M159.14,248.34
			c0,0.01,0,0.02,0,0.03c7.75,0,15.51-0.09,23.26,0.05c2.64,0.05,3.45-0.85,3.47-3.44c0.08-13.52,1.02-26.98,3.24-40.32
			c0.34-2.06-0.24-2.58-2.19-2.57c-12.97,0.05-25.94,0.05-38.9,0c-1.89-0.01-2.9,0.82-3.7,2.43c-6.3,12.72-9.91,26.17-11.22,40.29
			c-0.28,3.03,0.91,3.61,3.58,3.56C144.16,248.26,151.65,248.34,159.14,248.34z M273.64,310.39c0,0.02,0,0.04,0,0.06
			c4.54,0,9.09-0.14,13.62,0.05c2.75,0.12,3.97-0.64,4.47-3.56c1.96-11.46,3.42-22.97,4.29-34.57c0.61-8.21,0.67-7.93-7.45-8.3
			c-5.02-0.23-8.89,1.13-12.58,4.53c-5.4,4.97-11.22,9.47-16.87,14.17c-1.22,1.02-2.45,1.87-2.42,3.83
			c0.1,7.08,0.11,14.16-0.02,21.24c-0.04,2.31,1.07,2.61,2.94,2.58C264.28,310.35,268.96,310.39,273.64,310.39z M233.85,304.07
			c0-2.29,0-3.59,0-4.89c-0.01-10.15-0.15-20.31,0.03-30.46c0.06-3.38-0.7-4.73-4.4-4.61c-8.01,0.26-16.03,0.18-24.04-0.05
			c-3.3-0.09-4.45,0.76-4.13,4.24c1.24,13.18,3.04,26.26,5.51,39.26c0.4,2.12,1.17,2.94,3.35,2.92c9.35-0.1,18.7-0.06,28.06-0.12
			c0.98-0.01,2.45,0.35,2.51-1.21c0.13-3.34,0.41-6.72-0.29-10.5C238.21,300.5,236.47,301.92,233.85,304.07z M256.74,348.82
			c0.01,0,0.02,0,0.03,0c0,6.81,0.06,13.63-0.04,20.44c-0.03,2.15,0.74,2.9,2.82,2.54c4.34-0.73,8.68-1.46,13.04-2.09
			c1.98-0.28,2.99-1.3,3.59-3.18c3.97-12.33,7.31-24.83,10.44-37.39c0.64-2.58-0.38-2.93-2.54-2.92c-8.15,0.04-16.3,0.04-24.44-0.08
			c-2.3-0.03-2.98,0.8-2.93,3.04C256.82,335.73,256.74,342.28,256.74,348.82z M240.82,349.2c0.01,0,0.01,0,0.02,0
			c0-6.54-0.13-13.09,0.06-19.62c0.08-2.65-0.73-3.5-3.36-3.45c-7.74,0.15-15.49,0.19-23.23,0.04c-3.11-0.06-3.57,0.98-2.77,3.79
			c2.51,8.85,4.71,17.79,7.23,26.64c3.87,13.58,3.94,13.56,18.09,15.05c0.27,0.03,0.54,0.03,0.8,0.08c2.46,0.56,3.27-0.41,3.22-2.91
			C240.73,362.29,240.82,355.75,240.82,349.2z M204.52,363.03c0-0.7,0.12-1.24-0.02-1.7c-3.36-10.83-6.49-21.73-9.08-32.77
			c-0.56-2.4-2.12-2.33-3.9-2.33c-10.41,0-20.82-0.04-31.22-0.02c-1.02,0-2.45-0.46-2.97,0.53c-0.67,1.27,0.76,2.1,1.47,2.95
			c10.87,13.15,23.97,23.49,39.33,30.92C200.1,361.57,202,362.87,204.52,363.03z M293.79,363.01c0.77-0.1,1.31-0.05,1.75-0.24
			c17.46-7.66,31.99-19.11,43.94-33.92c0.47-0.58,1.33-1.19,0.87-2.04c-0.54-1-1.68-0.61-2.55-0.61
			c-10.41-0.01-20.83,0.11-31.24-0.03c-2.7-0.04-3.32,1.36-3.88,3.48c-2.39,9.03-4.9,18.03-7.35,27.04
			C294.77,358.7,293.76,360.61,293.79,363.01z M217.34,248.39c0-0.02,0-0.04,0-0.06c3.87,0,7.73,0.02,11.6,0
			c4.67-0.03,6.03-1.86,4.79-6.37c-0.35-1.26-1.34-1.96-2.18-2.79c-9.99-9.81-17.75-20.94-20.45-34.98
			c-0.4-2.06-1.66-1.99-3.18-2.12c-2.1-0.18-2.78,0.92-3.1,2.74c-2.29,13.42-3.72,26.93-4.08,40.55c-0.06,2.25,0.75,3.11,3,3.06
			C208.28,248.32,212.81,248.39,217.34,248.39z M202.91,150.37c-1.04,0.05-1.48-0.04-1.8,0.11c-2.3,1.07-4.61,2.13-6.85,3.32
			c-13.85,7.36-25.98,16.86-35.94,29.04c-0.66,0.8-1.48,1.76-1.55,2.68c-0.06,0.95,1.2,0.76,1.95,0.76
			c10.43,0.02,20.85,0.01,31.28,0.04c1.51,0,2.47-0.44,2.85-2.11C195.43,172.87,198.89,161.79,202.91,150.37z M210.39,187.31
			c3.05-20.22,13.56-34.7,29.75-46.56c-5.82-0.16-10.25,0.78-14.71,1.43c-2.54,0.37-3.91,1.5-4.84,3.98
			c-4.48,11.89-7.94,24.09-11.04,36.39C209.28,183.6,208.46,184.77,210.39,187.31z M363.2,236.38c-4,4.32-7.93,7.9-11.98,11.47
			c4.05,0.46,7.76,0.43,11.48,0.47c1.62,0.02,2.61-0.5,2.3-2.32C364.47,243,364.65,239.88,363.2,236.38z"/>
	</g>
	<g>
		<path class="st9" d="M255.3,211.59c12.97-10.19,26.56-21.07,26.56-31c0-3.66-1.65-5.92-4.96-5.92c-3.22,0-5.4,2.7-5.22,8.36
			h-16.54c0.52-16.19,11.06-22.72,22.81-22.72c15.15,0,21.16,8.62,21.16,19.07c0,13.23-10.97,24.12-21.16,31.17h21.77v13.84h-44.4
			V211.59z"/>
		<path class="st9" d="M312.5,177.64h-8.97v-16.02h26.82v63.65H312.5V177.64z"/>
	</g>
	<text transform="matrix(0 -1 1 0 345.1727 220.5836)" class="st9 st10 st11">February</text>
</g>
</svg>
