<svg width="17" height="30" viewBox="0 0 17 30" fill="none" xmlns="http://www.w3.org/2000/svg">
<path d="M10.3071 29.7578H4.94574C4.54004 29.7578 4.2137 29.4314 4.2137 29.0257V16.7893H0.732042C0.328328 16.7893 0 16.46 0 16.0583V10.3091C0 9.90636 0.328328 9.57704 0.732042 9.57704H4.2137V8.07031C4.2137 3.69591 7.50888 0 11.4101 0H16.0563C16.459 0 16.7873 0.328327 16.7873 0.732041V6.47926C16.7873 6.88099 16.459 7.2113 16.0563 7.2113H11.4181C11.3327 7.23213 11.0401 7.47813 11.0401 8.01873V9.57506H16.0563C16.459 9.57506 16.7873 9.90438 16.7873 10.3071V16.0563C16.7873 16.458 16.459 16.7873 16.0563 16.7873H11.0401V29.0237C11.0391 29.4314 10.7118 29.7578 10.3071 29.7578ZM5.67778 28.2927H9.57506V16.0573C9.57506 15.6506 9.90239 15.3253 10.3071 15.3253H15.3233V11.0401H10.3071C9.90239 11.0401 9.57506 10.7148 9.57506 10.3091V8.01972C9.57506 6.66078 10.5233 5.74722 11.4101 5.74722H15.3233V1.46507H11.4101C8.35598 1.46507 5.67877 4.55195 5.67877 8.07031V10.3091C5.67877 10.7148 5.35045 11.0401 4.94673 11.0401H1.46507V15.3253H4.94673C5.35144 15.3253 5.67877 15.6506 5.67877 16.0573L5.67778 28.2927Z" fill="#C4161C"/>
</svg>
