<svg width="28" height="27" viewBox="0 0 28 27" fill="none" xmlns="http://www.w3.org/2000/svg">
<path d="M26.8701 26.4305H21.2681C20.8718 26.4305 20.5516 26.1103 20.5516 25.714V16.6922C20.5516 13.598 18.9557 13.598 18.4291 13.598C17.0123 13.598 16.4098 14.7163 16.2144 15.1994C16.1221 15.4166 16.0786 15.7857 16.0786 16.3014V25.7195C16.0786 26.1158 15.7584 26.436 15.3621 26.436H9.7547C9.56471 26.436 9.38014 26.36 9.24444 26.2243C9.10874 26.0887 9.03275 25.904 9.03816 25.714C9.03816 25.5621 9.11415 10.4334 9.03816 8.8863C9.02731 8.69088 9.09786 8.50089 9.23359 8.35975C9.36931 8.21861 9.55386 8.13718 9.75467 8.13718H15.3621C15.7584 8.13718 16.0787 8.45742 16.0787 8.85369V9.2771C17.0232 8.43572 18.3857 7.74088 20.4159 7.74088C24.9051 7.74088 27.5867 10.8459 27.5867 16.0462V25.714C27.5867 26.1103 27.2664 26.4305 26.8701 26.4305ZM21.9846 24.9975L26.159 24.9974V16.0461C26.159 11.6763 24.0691 9.17388 20.4213 9.17388C17.984 9.17388 16.8006 10.3898 16.057 11.5026C15.9701 11.7958 15.6932 12.0129 15.3676 12.0129H15.3296C15.069 12.0129 14.8302 11.8718 14.7053 11.6438C14.6076 11.4646 14.5859 11.2584 14.651 11.0684V9.56476H10.4875C10.5255 12.5558 10.4875 22.2345 10.4767 24.9921H14.6456V16.2959C14.6456 15.5739 14.7216 15.0528 14.8844 14.6565C15.5141 13.0986 16.8386 12.1595 18.4237 12.1595C20.6819 12.1595 21.9792 13.8098 21.9792 16.6867V24.9975H21.9847L21.9846 24.9975ZM6.65514 26.4304H1.04769C0.651424 26.4304 0.331179 26.1102 0.331179 25.7139V8.85364C0.331179 8.45737 0.651424 8.1371 1.04769 8.1371H6.65514C7.05141 8.1371 7.37165 8.45737 7.37165 8.85361V25.7139C7.37165 26.1102 7.05141 26.4305 6.65514 26.4305V26.4304ZM1.76426 24.9974H5.9386V9.57012H1.76429V24.9974L1.76426 24.9974ZM3.85412 7.26854L3.8161 7.26851C1.60678 7.26851 0 5.73773 0 3.63155C0 1.53081 1.63392 0 3.89209 0C6.11227 0 7.69737 1.48734 7.7408 3.61526C7.7408 5.73773 6.10688 7.26854 3.85412 7.26854ZM3.89209 1.43852C2.42102 1.43852 1.43308 2.32334 1.43308 3.63702C1.43308 4.92893 2.41019 5.83546 3.81612 5.83546H3.8541C5.31976 5.83546 6.3077 4.95064 6.3077 3.63699C6.28055 2.30705 5.33061 1.43852 3.89209 1.43852Z" fill="#C4161C"/>
</svg>
