<svg width="32" height="24" viewBox="0 0 32 24" fill="none" xmlns="http://www.w3.org/2000/svg">
<path d="M25.6366 0H6.36343C2.85453 0 0 2.86367 0 6.38302V17.1265C0 20.6465 2.85453 23.5096 6.36343 23.5096H25.6366C29.1455 23.5096 32 20.6459 32 17.1265V6.38302C32 2.86367 29.1455 0 25.6366 0ZM30.6939 17.1272C30.6939 19.9269 28.4251 22.2041 25.6366 22.2041H6.36343C3.57486 22.2041 1.30612 19.9262 1.30612 17.1272V6.38302C1.30612 3.584 3.57486 1.30612 6.36343 1.30612H25.6366C28.4251 1.30612 30.6939 3.584 30.6939 6.38302V17.1272Z" fill="#C4161C"/>
<path d="M21.7859 11.5188L12.7377 6.2192C12.5366 6.10165 12.2865 6.09969 12.0834 6.21593C11.8803 6.33218 11.7549 6.54834 11.7549 6.78279V17.3813C11.7549 17.6151 11.8803 17.8319 12.0827 17.9482C12.1833 18.0056 12.2956 18.0344 12.4079 18.0344C12.5222 18.0344 12.6359 18.0043 12.7377 17.9449L21.7859 12.6466C21.9857 12.5297 22.1092 12.3149 22.1092 12.083C22.1092 11.8512 21.9864 11.6357 21.7859 11.5188ZM13.061 16.2417V7.92173L20.1637 12.0824L13.061 16.2417Z" fill="#C4161C"/>
</svg>
